<?xml version="1.0" encoding="UTF-8"?>
<!DOCTYPE svg PUBLIC "-//W3C//DTD SVG 1.1//EN" "http://www.w3.org/Graphics/SVG/1.1/DTD/svg11.dtd">
<!-- Creator: CorelDRAW X7 -->
<svg xmlns="http://www.w3.org/2000/svg" xml:space="preserve" width="15.273mm" height="11.173mm" version="1.1" style="shape-rendering:geometricPrecision; text-rendering:geometricPrecision; image-rendering:optimizeQuality; fill-rule:evenodd; clip-rule:evenodd"
viewBox="0 0 1527 1117"
 xmlns:xlink="http://www.w3.org/1999/xlink">
 <defs>
  <style type="text/css">
   <![CDATA[
    .fil0 {fill:#805D49}
   ]]>
  </style>
 </defs>
 <g id="Слой_x0020_1">
  <metadata id="CorelCorpID_0Corel-Layer"/>
  <path class="fil0" d="M349 716c111,0 201,90 201,201 0,111 -90,201 -201,201 -111,0 -200,-90 -200,-201 0,-111 89,-201 200,-201zm-206 -716l166 0 0 155 -166 0 0 -155zm793 187l104 274 -329 0 0 -274 225 0zm-936 270l87 0 0 -287 286 0 0 287 20 0 0 -152 233 0 0 152 22 0 0 -326 330 0 140 326 318 0 62 76 0 291 29 0 -1 53 -90 0 -16 0c-44,-269 -435,-269 -479,0l-353 0c-19,-115 -119,-203 -239,-203 -120,0 -220,88 -239,203l-110 0 0 -420zm393 -433l234 0 0 261 -234 0 0 -261zm787 691c111,0 201,90 201,201 0,110 -90,200 -201,200 -110,0 -200,-90 -200,-200 0,-111 90,-201 200,-201zm0 78c68,0 123,55 123,123 0,67 -55,122 -123,122 -67,0 -122,-55 -122,-122 0,-68 55,-123 122,-123zm-831 1c68,0 123,55 123,123 0,68 -55,122 -123,122 -67,0 -122,-54 -122,-122 0,-68 55,-123 122,-123z"/>
 </g>
</svg>
