<?xml version="1.0" encoding="UTF-8"?>
<!DOCTYPE svg PUBLIC "-//W3C//DTD SVG 1.1//EN" "http://www.w3.org/Graphics/SVG/1.1/DTD/svg11.dtd">
<!-- Creator: CorelDRAW X7 -->
<svg xmlns="http://www.w3.org/2000/svg" xml:space="preserve" width="13.547mm" height="15.975mm" version="1.1" style="shape-rendering:geometricPrecision; text-rendering:geometricPrecision; image-rendering:optimizeQuality; fill-rule:evenodd; clip-rule:evenodd"
viewBox="0 0 1355 1598"
 xmlns:xlink="http://www.w3.org/1999/xlink">
 <defs>
  <style type="text/css">
   <![CDATA[
    .fil0 {fill:#7C5848}
   ]]>
  </style>
 </defs>
 <g id="Слой_x0020_1">
  <metadata id="CorelCorpID_0Corel-Layer"/>
  <g id="_805362424">
   <path class="fil0" d="M1313 513c-23,0 -42,19 -42,42l0 164 -47 0 0 -37c0,-157 -194,-227 -295,-111 -67,-77 -187,-77 -254,0 -67,-77 -186,-77 -253,0 -102,-116 -295,-46 -295,111l0 37 -85 0c-23,0 -42,19 -42,42 0,23 19,42 42,42l85 0 0 626c0,156 193,227 295,111 67,76 186,76 253,0 67,76 187,76 254,0 101,116 295,45 295,-111l0 -626 89 0c23,0 42,-19 42,-42l0 -206c0,-23 -19,-42 -42,-42zm-173 916c0,47 -38,85 -85,85 -46,0 -84,-38 -84,-85 0,-249 0,-498 0,-747 0,-47 38,-85 84,-85 47,0 85,38 85,85 0,249 0,498 0,747zm-253 0c0,47 -38,85 -85,85 -47,0 -85,-38 -85,-85l0 -747c0,-47 38,-85 85,-85 47,0 85,38 85,85l0 747zm-254 0c0,47 -38,85 -84,85 -47,0 -85,-38 -85,-85l0 -747c0,-47 38,-85 85,-85 46,0 84,38 84,85l0 747zm-253 0c0,47 -38,85 -85,85 -46,0 -84,-38 -84,-85l0 -747c0,-47 38,-85 84,-85 47,0 85,38 85,85l0 747z"/>
   <path class="fil0" d="M396 14c-124,148 68,224 -4,317 -33,42 26,102 59,59 123,-158 -67,-231 5,-317 34,-41 -25,-100 -60,-59z"/>
   <path class="fil0" d="M703 390c123,-158 -67,-231 4,-317 35,-41 -24,-100 -59,-59 -124,148 68,224 -5,317 -32,42 26,102 60,59z"/>
   <path class="fil0" d="M900 14c-124,148 67,224 -5,317 -33,42 26,102 59,59 123,-158 -67,-231 5,-317 35,-41 -24,-100 -59,-59z"/>
  </g>
  <g id="_805362112">
  </g>
  <g id="_805361968">
  </g>
  <g id="_805361896">
  </g>
  <g id="_805362544">
  </g>
  <g id="_805361464">
  </g>
  <g id="_805361248">
  </g>
  <g id="_805361320">
  </g>
  <g id="_805361608">
  </g>
  <g id="_805360768">
  </g>
  <g id="_805360432">
  </g>
  <g id="_805360456">
  </g>
  <g id="_805360912">
  </g>
  <g id="_805360360">
  </g>
  <g id="_805359856">
  </g>
  <g id="_805359640">
  </g>
 </g>
</svg>
