<?xml version="1.0" encoding="UTF-8"?>
<!DOCTYPE svg PUBLIC "-//W3C//DTD SVG 1.1//EN" "http://www.w3.org/Graphics/SVG/1.1/DTD/svg11.dtd">
<!-- Creator: CorelDRAW X7 -->
<svg xmlns="http://www.w3.org/2000/svg" xml:space="preserve" width="11.797mm" height="13.352mm" version="1.1" style="shape-rendering:geometricPrecision; text-rendering:geometricPrecision; image-rendering:optimizeQuality; fill-rule:evenodd; clip-rule:evenodd"
viewBox="0 0 1180 1335"
 xmlns:xlink="http://www.w3.org/1999/xlink">
 <defs>
  <style type="text/css">
   <![CDATA[
    .fil0 {fill:#805D49;fill-rule:nonzero}
   ]]>
  </style>
 </defs>
 <g id="Слой_x0020_1">
  <metadata id="CorelCorpID_0Corel-Layer"/>
  <path class="fil0" d="M604 682l-141 152c-26,35 27,75 56,48 162,-143 362,-332 496,-487 68,-75 -89,-328 -244,-204 -176,140 -441,416 -578,579 -139,167 106,446 286,412 111,-21 294,-202 376,-285l103 105c-103,108 -277,276 -421,320 -315,95 -671,-343 -486,-611 129,-165 480,-528 663,-663 266,-196 594,258 414,444 -134,158 -348,348 -505,497 -171,146 -403,-85 -264,-242l151 -155 94 90z"/>
 </g>
</svg>
