<?xml version="1.0" encoding="UTF-8"?>
<!DOCTYPE svg PUBLIC "-//W3C//DTD SVG 1.1//EN" "http://www.w3.org/Graphics/SVG/1.1/DTD/svg11.dtd">
<!-- Creator: CorelDRAW X7 -->
<svg xmlns="http://www.w3.org/2000/svg" xml:space="preserve" width="19.919mm" height="13.232mm" version="1.1" style="shape-rendering:geometricPrecision; text-rendering:geometricPrecision; image-rendering:optimizeQuality; fill-rule:evenodd; clip-rule:evenodd"
viewBox="0 0 1992 1323"
 xmlns:xlink="http://www.w3.org/1999/xlink">
 <defs>
  <style type="text/css">
   <![CDATA[
    .fil0 {fill:#805D49;fill-rule:nonzero}
   ]]>
  </style>
 </defs>
 <g id="Слой_x0020_1">
  <metadata id="CorelCorpID_0Corel-Layer"/>
  <g id="_783902344">
   <path class="fil0" d="M74 1300l281 -150 -74 -139 -281 151 74 138zm588 -912l-460 246 218 380 122 -65c176,-242 483,177 -50,232l59 141c7,17 591,-106 396,-470 -104,-195 -270,-229 -428,-62l-72 -109 278 -149 -63 -144zm713 -303l-18 880 150 -92 19 -873 -151 85z"/>
   <path class="fil0" d="M915 284c-87,72 -97,205 -5,323 92,118 219,136 305,64 88,-72 97,-204 5,-322 -91,-118 -218,-137 -305,-65zm79 102c46,-37 89,4 124,49 36,46 64,97 18,134 -38,30 -86,-4 -121,-49 -36,-46 -66,-96 -21,-134z"/>
   <path class="fil0" d="M1622 315c-87,72 -97,204 -6,322 92,118 220,136 306,65 87,-73 97,-205 5,-323 -92,-118 -218,-137 -305,-64zm79 102c45,-38 88,3 123,48 36,47 65,98 19,134 -38,31 -87,-3 -122,-48 -36,-47 -66,-96 -20,-134z"/>
  </g>
 </g>
</svg>
