<?xml version="1.0" encoding="UTF-8"?>
<!DOCTYPE svg PUBLIC "-//W3C//DTD SVG 1.1//EN" "http://www.w3.org/Graphics/SVG/1.1/DTD/svg11.dtd">
<!-- Creator: CorelDRAW X7 -->
<svg xmlns="http://www.w3.org/2000/svg" xml:space="preserve" width="3.995mm" height="5.345mm" version="1.1" style="shape-rendering:geometricPrecision; text-rendering:geometricPrecision; image-rendering:optimizeQuality; fill-rule:evenodd; clip-rule:evenodd"
viewBox="0 0 399 534"
 xmlns:xlink="http://www.w3.org/1999/xlink">
 <defs>
  <style type="text/css">
   <![CDATA[
    .fil0 {fill:#493A1D}
   ]]>
  </style>
 </defs>
 <g id="Слой_x0020_1">
  <metadata id="CorelCorpID_0Corel-Layer"/>
  <path class="fil0" d="M50 0l299 0c28,0 51,23 51,50l0 434c0,28 -23,50 -51,50l-299 0c-27,0 -50,-22 -50,-50l0 -434c0,-27 23,-50 50,-50zm25 53l254 0c8,0 14,7 14,15l0 76c0,8 -7,15 -14,15l-254 -1c-8,0 -14,-6 -14,-14l0 -76c0,-8 6,-15 14,-15zm199 353l69 0 0 69 -69 0 0 -69zm-106 0l69 0 0 69 -69 0 0 -69zm-107 0l69 0 0 69 -69 0 0 -69zm213 -106l69 0 0 70 -69 0 0 -70zm-106 0l70 0 0 70 -70 0 0 -70zm-107 0l69 0 0 70 -69 0 0 -70zm213 -105l69 0 0 69 -69 0 0 -69zm-106 0l69 0 0 69 -69 0 0 -69zm-107 0l69 0 0 69 -69 0 0 -69z"/>
 </g>
</svg>
