<svg xmlns="http://www.w3.org/2000/svg" xmlns:xlink="http://www.w3.org/1999/xlink" width="21" height="24" viewBox="0 0 21 24"><defs><path id="rppba" d="M1413.24 52.32a7.65 7.65 0 0 1 10.52 1.84 7.32 7.32 0 0 1-.78 9.42l2.72 3.86a1.6 1.6 0 0 1-.4 2.26c-.75.52-1.78.34-2.3-.4l-2.8-3.94a7.64 7.64 0 0 1-8.83-2.7 7.34 7.34 0 0 1 1.87-10.34zm.07 8.75a4.91 4.91 0 0 0 6.85 1.21c2.22-1.55 3.6-4.5 1.9-6.86-1.7-2.36-5.3-2.77-7.53-1.21a4.93 4.93 0 0 0-1.22 6.86z"/></defs><g><g transform="translate(-1407 -48)"><use href="#rppba"/></g></g></svg>