<?xml version="1.0" encoding="UTF-8"?>
<!DOCTYPE svg PUBLIC "-//W3C//DTD SVG 1.1//EN" "http://www.w3.org/Graphics/SVG/1.1/DTD/svg11.dtd">
<!-- Creator: CorelDRAW X7 -->
<svg xmlns="http://www.w3.org/2000/svg" xml:space="preserve" width="117" height="98" version="1.1" style="shape-rendering:geometricPrecision; text-rendering:geometricPrecision; image-rendering:optimizeQuality; fill-rule:evenodd; clip-rule:evenodd"
viewBox="0 0 4082 3403"
 xmlns:xlink="http://www.w3.org/1999/xlink">
 <defs>
  <style type="text/css">
   <![CDATA[
    .fil0 {fill:#807e7c}
   ]]>
  </style>
 </defs>
   <path class="fil0" d="M2681 2699l-617 -685 421 0c30,0 57,-18 69,-45 12,-28 7,-59 -13,-82l-670 -745 375 0c66,0 100,-78 56,-127l-886 -991c-29,-32 -84,-32 -113,0l-897 991c-44,49 -9,127 56,127l375 0 -670 745c-20,23 -25,54 -13,82 12,27 39,45 69,45l421 0 -625 694c-20,22 -25,54 -12,82 12,27 39,45 69,45l975 0 0 493c0,41 34,75 76,75l455 0c41,0 75,-34 75,-75l0 -493 975 0c1,0 1,0 2,0 42,0 76,-34 76,-76 0,-24 -12,-40 -29,-60zm-1124 603l-405 -1 0 -466 404 0 1 467zm-1428 -569l714 -769c15,-18 6,-50 -28,-51l-535 0 715 -791c9,-10 26,-84 -44,-82l-430 1 842 -926 826 926 -439 -1c-36,0 -69,35 -37,78l715 792 -503 2c-16,1 -44,22 -20,57l650 763 -2426 1z"/>
   <path class="fil0" d="M4053 2699l-558 -686 295 0c30,0 58,-17 70,-45 12,-27 25,-66 4,-88l-655 -844c-30,-38 -89,-45 -132,5l-537 600 70 80 537 -615 616 804 -423 1c-26,2 -55,48 3,101l606 721 -1141 0 -2 102 37 0 0 493c0,41 34,75 76,75l455 0c42,0 76,-34 76,-75l0 -493 555 0c74,0 104,-92 48,-136zm-1445 -344l323 -344c44,-45 20,-99 -13,-100l-200 0 0 102 85 0 -271 265 76 77zm740 947l-403 0 0 -467 403 0 0 467z"/>
</svg>
