<svg xmlns="http://www.w3.org/2000/svg" xmlns:xlink="http://www.w3.org/1999/xlink" width="96" height="18" viewBox="0 0 96 18"><defs><path id="w7wra" d="M1382.65 843.73c-.17 0-.26.09-.26.25 0 .08.12.24.34.5a6.76 6.76 0 0 1 1.78 4.46c0 1.58-.42 3.02-1.27 4.32a5.62 5.62 0 0 1-1.51 1.57 3.2 3.2 0 0 1-1.85.62c-1.15 0-2.01-.27-2.56-.83-.56-.55-.83-1.4-.83-2.55 0-1.6.46-3 1.4-4.2a4.95 4.95 0 0 1 4.4-1.94 10.9 10.9 0 0 0-.83-.89c-.29-.27-.55-.54-.8-.8-.54-.6-.81-1.16-.81-1.68 0-.53.17-.9.52-1.15.35-.23.9-.35 1.64-.35h3.93c.46 0 .76-.13.9-.37a2 2 0 0 0 .23-.6h.88c-.32 1.52-.7 2.51-1.14 2.98-.26.26-.56.44-.92.53-.36.09-.8.13-1.32.13zm-3 9.62c.16.2.41.3.75.3.33 0 .62-.1.86-.31.23-.21.44-.48.63-.82.32-.6.56-1.33.72-2.16.16-.84.24-1.5.24-1.99 0-.48-.06-.8-.2-.98-.12-.17-.33-.26-.61-.26-.29 0-.56.1-.81.3-.26.2-.49.46-.7.78a7.07 7.07 0 0 0-.83 2.06c-.2.8-.3 1.47-.3 2 0 .52.09.88.25 1.08zm9.06 2.14c-.95 0-1.7-.24-2.27-.74-.57-.49-.85-1.3-.85-2.43 0-1.53.39-3 1.16-4.43a5.15 5.15 0 0 1 2.42-2.32 3.82 3.82 0 0 1 1.64-.37c.93 0 1.56.17 1.89.52.33.35.5.81.5 1.4 0 1.13-.46 2.1-1.38 2.9-.92.8-2 1.23-3.22 1.31-.04.38-.05.65-.05.8 0 .69.12 1.14.36 1.36.24.21.58.32 1.02.32.76 0 1.41-.17 1.93-.51a8.51 8.51 0 0 0 1.67-1.51h.25a9.25 9.25 0 0 1 1.15-3.9 5.18 5.18 0 0 1 2.41-2.32 3.8 3.8 0 0 1 1.63-.37c1.6 0 2.4.6 2.4 1.82 0 .5-.1.88-.31 1.11a.92.92 0 0 1-.7.36c-.26 0-.51-.08-.75-.23.16-.43.24-.83.24-1.19 0-.54-.2-.82-.57-.82-.38 0-.78.35-1.2 1.04a9.72 9.72 0 0 0-1.36 5.08c0 .96.46 1.44 1.38 1.44.77 0 1.42-.17 1.94-.51a8.51 8.51 0 0 0 1.67-1.51h.5l1.35-6.42h2.88l-.21 1.04a3 3 0 0 1 2.33-1.11c.64 0 1.17.17 1.6.52.42.36.63.88.63 1.57 0 .69-.11 1.47-.33 2.34l-.48 1.93c-.1.43-.16.77-.16 1.04 0 .57.25.86.73.86.45 0 .8-.14 1.04-.43s.48-.73.71-1.34h.4l.06-.04c.15-.08.36-.12.6-.12.26 0 .49.1.68.3.19.18.29.44.29.76 0 .33-.09.56-.25.72a.66.66 0 0 1-.55.19c0 .13.06.27.16.42.1.14.3.21.62.21s.58-.1.78-.32c.36-.37.64-1.07.86-2.1l.29-1.47c.57-2.8 1.44-4.38 2.6-4.77.38-.13.79-.2 1.24-.2h2.95l-1.42 6.5c-.08.4-.13.67-.13.85 0 .56.27.84.8.84.4 0 .73-.16.97-.47.24-.3.48-.74.71-1.3h.26a9.26 9.26 0 0 1 .54-2.55 7.39 7.39 0 0 1 1.78-2.84 3.89 3.89 0 0 1 2.8-1.12c.58 0 1 .1 1.25.28.25.2.38.44.38.73v.15l.21-1.07h2.88l-1.43 6.8c-.06.23-.09.44-.09.65 0 .57.27.86.82.86.71 0 1.25-.63 1.62-1.89h.5l1.36-6.42h2.88l-.21 1.04a3.13 3.13 0 0 1 2.44-1.13c1.18 0 1.86.57 2.05 1.72.73-1.14 1.66-1.7 2.78-1.7.63 0 1.16.17 1.58.52.43.36.64.87.64 1.55 0 .67-.11 1.46-.33 2.34l-.47 1.95c-.1.43-.16.77-.16 1.04 0 .57.25.86.73.86.45 0 .8-.14 1.04-.43s.48-.73.71-1.34h.5l1.36-6.42h2.88l-.86 4h2.24l.9-4h2.68l-1.05 4.97-.36 1.54c-.09.38-.13.66-.13.84 0 .56.26.84.8.84.4 0 .72-.16.97-.47.24-.3.47-.74.7-1.3h.24c.05-.73.17-1.4.37-2 1.02-3.06 2.72-4.6 5.1-4.6 1.7 0 2.56 1.05 2.56 3.14 0 2.1-.45 3.8-1.36 5.13a4.89 4.89 0 0 1-1.53 1.47c-.6.35-1.18.52-1.77.52-1.12 0-1.97-.25-2.54-.75a2.53 2.53 0 0 1-.8-1.54c-.79 1.55-1.84 2.33-3.14 2.33-.77 0-1.35-.2-1.75-.6-.4-.41-.6-.92-.6-1.52 0-.45.15-1.39.45-2.8h-2.21l-1.03 4.8h-2.88l.42-1.98a4.74 4.74 0 0 1-1.2 1.5c-.51.4-1.06.6-1.63.6-1.71 0-2.56-.75-2.56-2.25 0-.55.15-1.42.45-2.62.3-1.2.45-2.03.45-2.48 0-.69-.25-1.03-.73-1.03s-.9.38-1.29 1.15c-.1.21-.2.44-.27.7l-1.36 6.41h-2.88l1.47-6.9c.04-.16.06-.32.06-.5 0-.58-.2-.88-.6-.88-.39 0-.72.19-1 .55-.28.37-.49.81-.63 1.32l-1.36 6.41h-2.88l.44-2.07c-.82 1.46-1.94 2.2-3.35 2.2-1.18 0-1.83-.62-1.96-1.84-.88 1.22-1.9 1.83-3.06 1.83-1.16 0-1.95-.57-2.36-1.7-.08-.21-.14-.44-.17-.67-.8 1.58-1.86 2.37-3.18 2.37-.76 0-1.34-.2-1.75-.6-.4-.42-.6-.9-.6-1.43 0-.55.14-1.48.43-2.8l.88-3.97c-.67 0-1.18.28-1.53.84-.35.56-.64 1.4-.88 2.52a77.64 77.64 0 0 1-.6 2.6 6.66 6.66 0 0 1-.57 1.55 2.34 2.34 0 0 1-2.22 1.3c-.73 0-1.28-.23-1.65-.67a2.3 2.3 0 0 1-.46-.91c-.6.9-1.32 1.41-2.13 1.53-.21.03-.47.04-.77.04-.31 0-.61-.06-.91-.2-.84-.35-1.25-1.03-1.25-2.05 0-.55.15-1.42.45-2.62.3-1.2.45-2.03.45-2.48 0-.69-.24-1.03-.73-1.03-.48 0-.9.38-1.28 1.15-.12.21-.2.44-.28.7l-1.36 6.41h-2.88l.67-3.14c-1.44 2.17-3.18 3.26-5.22 3.26-.95 0-1.7-.24-2.27-.74-.54-.46-.83-1.22-.85-2.28-1.41 2.02-3.1 3.02-5.06 3.02zm2.94-8.51c0-.49-.16-.73-.5-.73-.48.02-.95.45-1.41 1.3-.46.85-.78 1.79-.99 2.82a2.9 2.9 0 0 0 2.03-1.07c.58-.66.87-1.44.87-2.32zm39.13.3a1 1 0 0 0-.17-.47c-.11-.2-.35-.3-.73-.3-.37 0-.73.2-1.08.6a7.42 7.42 0 0 0-1.6 4.12c-.02.28-.04.57-.04.87 0 .6.12 1 .37 1.24.14.15.32.22.54.22.4 0 .76-.16 1.08-.48.33-.31.55-.74.68-1.29zm34.6 6.38c.35 0 .68-.2.99-.58.6-.8 1.01-1.92 1.24-3.37.11-.69.17-1.3.17-1.8 0-.52-.05-.9-.15-1.14-.1-.24-.32-.36-.65-.36-.63 0-1.23.68-1.79 2.03a9.58 9.58 0 0 0-.84 3.6c0 .64.06 1.05.18 1.22a.8.8 0 0 0 .37.33c.13.04.29.07.48.07z"/></defs><g><g transform="translate(-1375 -839)"><use fill="#614f3c" xlink:href="#w7wra"/></g></g></svg>