<svg xmlns="http://www.w3.org/2000/svg" xmlns:xlink="http://www.w3.org/1999/xlink" width="20" height="27" viewBox="0 0 20 27"><defs><path id="ofhaa" d="M1401.38 6423.54c0-2.66 2.17-4.81 4.84-4.81a4.82 4.82 0 0 1 4.84 4.8c0 2.66-2.17 4.81-4.84 4.81a4.82 4.82 0 0 1-4.84-4.8zm-3.38.6c0 2 2.45 6.25 2.45 6.25l5.77 9.6 5.44-9.6s2.78-4.27 2.78-6.25a8.2 8.2 0 0 0-8.22-8.18 8.2 8.2 0 0 0-8.22 8.18z"/><mask id="ofhac" width="2" height="2" x="-1" y="-1"><path fill="#fff" d="M1398 6415h17v25h-17z"/><use xlink:href="#ofhaa"/></mask><filter id="ofhab" width="50" height="56.4" x="1379" y="6405" filterUnits="userSpaceOnUse"><feOffset dx="-5" dy="3.4" in="SourceGraphic" result="FeOffset1068Out"/><feGaussianBlur in="FeOffset1068Out" result="FeGaussianBlur1069Out" stdDeviation="1.6 1.6"/></filter><linearGradient id="ofhad" x1="1406.44" x2="1406" y1="6440" y2="6415.97" gradientUnits="userSpaceOnUse"><stop offset="0" stop-color="#1da5ee"/><stop offset="1" stop-color="#ace7fa"/></linearGradient><clipPath id="ofhae"><use fill="#fff" xlink:href="#ofhaa"/></clipPath></defs><g><g transform="translate(-1396 -6414)"><g filter="url(#ofhab)"><use fill="none" stroke-opacity=".16" stroke-width="0" mask="url(&quot;#ofhac&quot;)" xlink:href="#ofhaa"/><use fill="#0d0b08" fill-opacity=".16" xlink:href="#ofhaa"/></g><use fill="#009cff" xlink:href="#ofhaa"/><use fill="url(#ofhad)" xlink:href="#ofhaa"/><use fill="#fff" fill-opacity="0" stroke="#4eb1e6" stroke-linecap="round" stroke-linejoin="round" stroke-miterlimit="50" stroke-width="2" clip-path="url(&quot;#ofhae&quot;)" xlink:href="#ofhaa"/></g></g></svg>