<?xml version="1.0" encoding="UTF-8"?>
<!DOCTYPE svg PUBLIC "-//W3C//DTD SVG 1.1//EN" "http://www.w3.org/Graphics/SVG/1.1/DTD/svg11.dtd">
<!-- Creator: CorelDRAW X7 -->
<svg xmlns="http://www.w3.org/2000/svg" xml:space="preserve" width="37.456mm" height="31.626mm" version="1.1" style="shape-rendering:geometricPrecision; text-rendering:geometricPrecision; image-rendering:optimizeQuality; fill-rule:evenodd; clip-rule:evenodd"
viewBox="0 0 3746 3163"
 xmlns:xlink="http://www.w3.org/1999/xlink">
 <defs>
  <style type="text/css">
   <![CDATA[
    .fil1 {fill:#563f37}
    .fil0 {fill:#563f37;fill-rule:nonzero}
   ]]>
  </style>
 </defs>
 <g id="Слой_x0020_1">
  <metadata id="CorelCorpID_0Corel-Layer"/>
  <g id="_912880064">
   <path class="fil0" d="M2783 244c8,-41 8,-100 11,-143 91,85 117,111 156,135 29,18 58,31 149,66l-8 25c-10,28 -27,64 -6,92l5 -12c23,-56 35,-65 75,-105 91,194 80,133 212,249 -13,27 -20,45 -45,65l0 0c-2,1 -3,3 -3,23 1,11 3,22 7,32 1,4 3,8 5,11 24,-11 92,-91 112,-115 -1,189 -9,151 114,286 16,21 16,40 -6,56 -8,6 -27,15 -43,22l4 50c43,-29 64,-52 116,-82l-1 62c-11,189 2,149 62,286 -30,17 -47,23 -80,32 -6,16 -6,26 -3,41 52,-22 73,-24 130,-34 -19,57 -62,122 -63,177 -2,75 40,130 24,153 -17,25 -38,27 -62,28 -13,0 -29,1 -39,31l139 -8c-20,42 -70,130 -81,159 -29,78 10,204 -92,172 -8,-3 -17,-6 -30,-7 -8,9 -19,19 -26,29l122 14c-6,16 -70,87 -116,159 -46,72 -76,145 -76,145 -27,-4 -65,-30 -76,-27 -11,3 -21,9 -28,16l128 64c-139,66 -190,83 -255,226 -38,-11 -102,-52 -130,-36 3,2 5,5 8,7 26,20 66,31 97,42 -39,38 -122,51 -188,91 -52,31 -90,76 -118,119 -36,-43 -46,-92 -104,-80 3,5 6,8 10,12 39,37 43,65 60,112 -134,-3 -218,-23 -328,75 -23,-43 -33,-111 -84,-109 10,39 37,94 52,134l-59 -9c-107,-17 -110,-59 -239,-23 -14,3 -25,7 -36,8l-50 6 12 -49c5,-20 15,-33 -2,-49 -6,-6 -16,-12 -28,-15l-2 0 12 128c-105,-48 -153,-102 -274,-91 -76,7 -66,-47 -46,-111 -10,-8 -26,-12 -36,-18l-16 110 -39 -13c-5,-1 -85,-49 -151,-90 -49,-31 -93,-59 -97,-66l-8 -11 2 -14 2 -8 0 -5 2 -3c1,-3 3,-7 5,-10l0 -1c3,-5 6,-12 8,-18 6,-15 8,-35 -16,-52l-32 79 -26 64 -36 -60c-56,-92 -82,-111 -111,-132 -19,-14 -39,-28 -67,-58l-12 -13 4 -17c7,-38 21,-53 34,-66 5,-5 9,-9 -7,-50 -2,2 -3,4 -4,6 -8,17 -17,37 -54,62l-36 24 -16 -41 -48 -127 0 0c-16,-43 -14,-42 -14,-42 -16,-3 -34,-5 -60,-47l-7 -12 3 -14c1,-4 2,-9 3,-12 2,-11 3,-15 8,-22l1 0c7,-10 12,-12 20,-14 0,0 0,0 4,-3l0 0c8,-7 14,-11 20,-15l5 -3 -2 -43c-20,10 -39,28 -54,42l0 0 -6 6 -54 50c-9,-130 -48,-230 -70,-355l15 -13c4,-4 6,-6 7,-7l1 0c3,-4 5,-6 11,-9l0 0c5,-2 7,-3 12,-4l0 0c1,0 4,0 13,-3 4,-2 11,-3 19,-5l10 -46c-5,2 -9,4 -13,6 -16,8 -34,17 -64,23l-61 12 21 -58c33,-89 25,-131 18,-171 -10,-57 -7,-84 1,-138 21,4 42,8 62,14 19,6 33,-26 38,-39l0 -2 -143 9c46,-82 146,-198 114,-286l-13 -36c43,-11 141,1 142,-30 1,-11 -73,-9 -86,-11l-52 -5c54,-50 105,-103 136,-163 23,-43 31,-90 41,-142 36,6 59,5 85,35 4,5 42,-20 48,-27 -33,-18 -95,-38 -136,-58 133,-61 192,-49 271,-270 27,39 61,117 119,80 -24,-25 -69,-73 -101,-103 87,-3 140,-7 193,-28 36,-14 68,-53 117,-88 7,-6 11,5 20,14 24,24 30,31 75,25 -12,-28 -64,-90 -85,-120 107,5 152,21 212,4 34,-9 73,-40 125,-77 42,65 29,96 114,101 -14,-46 -34,-92 -48,-141 67,19 122,45 181,46 29,1 63,-9 93,-18 49,-1 77,14 68,68 -1,5 -2,12 -3,21 11,7 22,16 34,21l-8 -148c105,70 128,133 266,107 34,0 77,1 77,45 0,16 -19,45 -17,56 1,8 9,17 19,25 5,4 10,8 15,11zm70 5c-2,17 -6,34 -15,54l-12 25 -27 -5c-65,-12 -138,-74 -117,-147 -40,6 -67,10 -92,7 -26,-3 -51,-19 -89,-43l6 82 -35 3c-65,4 -94,-28 -143,-60 -1,-20 -3,-37 0,-57 -20,1 -50,11 -84,11 -27,-1 -56,-11 -82,-14 9,21 17,43 18,79l0 31c-70,9 -176,12 -214,-62 -32,20 -50,38 -73,44 -28,6 -61,-3 -103,-6 28,43 30,91 18,112 -65,26 -114,33 -165,-18 -26,23 -47,46 -72,59 -26,13 -56,18 -90,25 23,21 29,42 39,71 -52,51 -110,96 -181,44 -28,70 -65,94 -132,122 28,13 44,31 64,52 -22,48 -54,89 -108,104 -49,13 -64,4 -78,-12 -6,43 10,95 -99,159l6 0c45,6 70,23 82,44 7,15 8,31 4,46 -3,12 -10,24 -19,34 -24,28 -69,50 -106,47 2,71 -15,120 -56,178l87 -6 1 36c1,20 -3,43 -10,64 -14,40 -55,100 -104,89 1,13 3,26 5,38 7,37 14,76 1,138 20,-10 41,-15 80,-7l35 7 -8 34 -23 112 -5 21c-13,3 -27,7 -40,9 -8,2 -15,3 -16,4l0 0 2 3c13,26 32,62 45,176 26,-18 56,-31 93,-28l30 3 2 31 3 101 1 16 -12 11c-12,10 -19,15 -27,19 -4,3 -8,5 -12,9l0 0 -3 2c20,3 38,11 66,87l0 0 27 72c11,-23 22,-40 77,-51l29 -6 11 26c47,114 31,132 4,158 -3,4 -7,7 -10,14 17,16 30,25 43,35 27,19 53,38 93,95l21 -52 13 -31 32 12c112,42 105,109 86,157 -2,6 -4,11 -6,15 14,8 37,21 64,38 34,21 70,43 97,60l12 -87c60,11 115,33 165,72 -2,23 -2,43 -11,65 76,-5 118,12 182,51l-11 -79c58,-13 112,-18 158,27 26,25 34,42 33,60 69,-17 111,-14 178,8 -13,-38 -12,-57 -8,-95 87,-18 147,-33 183,63 62,-34 107,-48 178,-45 -28,-30 -26,-62 -28,-100 82,-24 139,-56 195,32 23,-26 43,-50 68,-65 28,-16 62,-20 92,-29 -30,-21 -41,-40 -56,-71 60,-91 94,-92 189,-43 42,-70 56,-98 129,-139l-65 -31c14,-59 33,-100 98,-119 44,-13 61,-2 77,12 0,-52 61,-135 103,-164l-63 -7 -33 -3c4,-104 38,-130 74,-162 27,0 49,1 76,9 -6,-80 -6,-120 48,-186l-108 6c9,-89 8,-170 116,-175 3,0 7,1 7,-2 3,-17 -52,-74 -4,-188 -37,16 -80,25 -99,-20 -13,-32 7,-103 12,-140 22,-7 43,-12 65,-18 -43,-45 -66,-117 -52,-173 -37,32 -67,27 -111,26l-15 -171 36 -17c-3,3 -47,-32 -71,-70 -17,-26 -17,-55 -17,-67 -19,14 -56,25 -79,34 -34,-47 -86,-150 -34,-199 -32,-15 -74,-42 -125,-133 -17,39 -27,52 -53,84 -83,-56 -122,-80 -87,-185 -41,-1 -65,-5 -87,-15 -26,-11 -46,-33 -74,-71z"/>
   <path class="fil1" d="M859 2250c-149,-48 -185,152 -73,188 59,18 118,-10 132,-72 13,-54 -21,-104 -59,-116zm272 -598c10,-23 8,-36 10,-68 52,40 99,58 134,83 -13,39 -24,60 21,90 14,-16 19,-49 34,-64 48,76 83,85 103,113 -18,20 -24,10 -23,46 1,20 11,39 18,49 36,-14 24,-23 50,-52 15,23 75,134 61,145 -4,3 -17,9 -23,11l2 66c33,1 42,-22 68,-36 -2,86 29,107 34,152 -7,4 -33,10 -42,13 -5,36 -24,77 23,58 21,-9 14,-9 38,-13 -37,112 6,129 -10,152 -10,14 2,5 -14,3 -32,1 -47,27 -51,63l71 -4c-58,123 -32,122 -41,140 -9,20 -15,2 -51,2 -16,20 -31,25 -32,55l67 7c-1,4 -83,134 -86,136 -21,-4 -15,-22 -44,-14 -18,5 -34,19 -38,37l60 28c-54,41 -78,76 -113,105 -30,-8 -1,1 -20,-13 -22,-15 -58,-6 -72,14 9,19 30,31 49,38 -4,3 -126,77 -137,80 -24,-28 -16,-48 -85,-29 2,37 24,31 36,65 -77,-2 -123,30 -152,32 -15,-28 -9,-62 -76,-48 -3,22 13,49 20,69 -58,-10 -143,-4 -162,-9 5,-23 12,-29 -6,-47 -12,-11 -34,-19 -55,-14l9 67c-47,-22 -140,-41 -148,-46 -21,-10 3,-12 5,-47 -20,-16 -21,-29 -56,-31l-9 61c-2,-1 -129,-78 -131,-81l1 -5c7,-15 35,-57 -30,-81l-26 65c-53,-88 -64,-68 -104,-112 8,-44 41,-14 7,-96 -43,9 -19,24 -55,48l-28 -72c-23,-62 -21,-17 -44,-54 5,-20 0,-7 14,-19 9,-7 12,-7 22,-15l-2 -58c-29,-3 -53,23 -67,36 -10,-131 -31,-122 -36,-151 14,-12 23,-10 40,-15l13 -63c-34,-7 -36,11 -72,18 33,-90 0,-105 8,-160 23,5 27,14 46,-6 12,-14 19,-36 19,-54l-70 5c25,-47 46,-146 48,-148 4,-1 19,4 24,4 34,3 87,-49 19,-58 -10,-1 -23,-2 -35,-3 30,-54 47,-56 81,-135 31,5 15,25 49,15 15,-4 36,-20 43,-36 -20,-21 -36,-18 -63,-31 105,-61 78,-69 118,-109 1,1 34,60 88,7 -9,-26 -28,-28 -49,-47 32,-13 131,-75 144,-62 26,25 21,27 75,19 4,-27 -18,-45 -33,-67 93,-4 100,-25 149,-32 3,5 6,14 8,20 12,25 55,32 85,28 0,-31 -12,-41 -20,-70 60,18 134,5 138,7 16,7 4,11 6,41 21,14 33,27 61,26l-5 -71c52,22 63,42 130,43 48,1 9,10 15,42 4,18 29,38 52,42z"/>
   <path class="fil0" d="M2259 1205c144,0 260,117 260,260 0,143 -116,260 -260,260 -143,0 -259,-117 -259,-260 0,-143 116,-260 259,-260zm0 75c-102,0 -184,83 -184,185 0,102 82,185 184,185 103,0 185,-83 185,-185 0,-102 -82,-185 -185,-185z"/>
  </g>
 </g>
</svg>
