<svg xmlns="http://www.w3.org/2000/svg">
    <symbol id="banner-1" viewBox="0 0 1355 1598">
        <path d="M1313 513c-23,0 -42,19 -42,42l0 164 -47 0 0 -37c0,-157 -194,-227 -295,-111 -67,-77 -187,-77 -254,0 -67,-77 -186,-77 -253,0 -102,-116 -295,-46 -295,111l0 37 -85 0c-23,0 -42,19 -42,42 0,23 19,42 42,42l85 0 0 626c0,156 193,227 295,111 67,76 186,76 253,0 67,76 187,76 254,0 101,116 295,45 295,-111l0 -626 89 0c23,0 42,-19 42,-42l0 -206c0,-23 -19,-42 -42,-42zm-173 916c0,47 -38,85 -85,85 -46,0 -84,-38 -84,-85 0,-249 0,-498 0,-747 0,-47 38,-85 84,-85 47,0 85,38 85,85 0,249 0,498 0,747zm-253 0c0,47 -38,85 -85,85 -47,0 -85,-38 -85,-85l0 -747c0,-47 38,-85 85,-85 47,0 85,38 85,85l0 747zm-254 0c0,47 -38,85 -84,85 -47,0 -85,-38 -85,-85l0 -747c0,-47 38,-85 85,-85 46,0 84,38 84,85l0 747zm-253 0c0,47 -38,85 -85,85 -46,0 -84,-38 -84,-85l0 -747c0,-47 38,-85 84,-85 47,0 85,38 85,85l0 747z"/>
        <path d="M396 14c-124,148 68,224 -4,317 -33,42 26,102 59,59 123,-158 -67,-231 5,-317 34,-41 -25,-100 -60,-59z"/>
        <path d="M703 390c123,-158 -67,-231 4,-317 35,-41 -24,-100 -59,-59 -124,148 68,224 -5,317 -32,42 26,102 60,59z"/>
        <path d="M900 14c-124,148 67,224 -5,317 -33,42 26,102 59,59 123,-158 -67,-231 5,-317 35,-41 -24,-100 -59,-59z"/>
    </symbol>
    <symbol id="banner-2" viewBox="0 0 1992 1323">
        <path d="M74 1300l281 -150 -74 -139 -281 151 74 138zm588 -912l-460 246 218 380 122 -65c176,-242 483,177 -50,232l59 141c7,17 591,-106 396,-470 -104,-195 -270,-229 -428,-62l-72 -109 278 -149 -63 -144zm713 -303l-18 880 150 -92 19 -873 -151 85z"/>
        <path d="M915 284c-87,72 -97,205 -5,323 92,118 219,136 305,64 88,-72 97,-204 5,-322 -91,-118 -218,-137 -305,-65zm79 102c46,-37 89,4 124,49 36,46 64,97 18,134 -38,30 -86,-4 -121,-49 -36,-46 -66,-96 -21,-134z"/>
        <path d="M1622 315c-87,72 -97,204 -6,322 92,118 220,136 306,65 87,-73 97,-205 5,-323 -92,-118 -218,-137 -305,-64zm79 102c45,-38 88,3 123,48 36,47 65,98 19,134 -38,31 -87,-3 -122,-48 -36,-47 -66,-96 -20,-134z"/>
    </symbol>
    <symbol id="banner-3" viewBox="0 0 1180 1335">
        <path d="M604 682l-141 152c-26,35 27,75 56,48 162,-143 362,-332 496,-487 68,-75 -89,-328 -244,-204 -176,140 -441,416 -578,579 -139,167 106,446 286,412 111,-21 294,-202 376,-285l103 105c-103,108 -277,276 -421,320 -315,95 -671,-343 -486,-611 129,-165 480,-528 663,-663 266,-196 594,258 414,444 -134,158 -348,348 -505,497 -171,146 -403,-85 -264,-242l151 -155 94 90z"/>
    </symbol>
    <symbol id="banner-4" viewBox="0 0 1527 1117">
        <path d="M349 716c111,0 201,90 201,201 0,111 -90,201 -201,201 -111,0 -200,-90 -200,-201 0,-111 89,-201 200,-201zm-206 -716l166 0 0 155 -166 0 0 -155zm793 187l104 274 -329 0 0 -274 225 0zm-936 270l87 0 0 -287 286 0 0 287 20 0 0 -152 233 0 0 152 22 0 0 -326 330 0 140 326 318 0 62 76 0 291 29 0 -1 53 -90 0 -16 0c-44,-269 -435,-269 -479,0l-353 0c-19,-115 -119,-203 -239,-203 -120,0 -220,88 -239,203l-110 0 0 -420zm393 -433l234 0 0 261 -234 0 0 -261zm787 691c111,0 201,90 201,201 0,110 -90,200 -201,200 -110,0 -200,-90 -200,-200 0,-111 90,-201 200,-201zm0 78c68,0 123,55 123,123 0,67 -55,122 -123,122 -67,0 -122,-55 -122,-122 0,-68 55,-123 122,-123zm-831 1c68,0 123,55 123,123 0,68 -55,122 -123,122 -67,0 -122,-54 -122,-122 0,-68 55,-123 122,-123z"/>
    </symbol>
    <symbol id="facebook" viewBox="0 0 470.513 470.513">
        <path d="M271.521,154.17v-40.541c0-6.086,0.28-10.8,0.849-14.13c0.567-3.335,1.857-6.615,3.859-9.853 c1.999-3.236,5.236-5.47,9.706-6.708c4.476-1.24,10.424-1.858,17.85-1.858h40.539V0h-64.809c-37.5,0-64.433,8.897-80.803,26.691 c-16.368,17.798-24.551,44.014-24.551,78.658v48.82h-48.542v81.086h48.539v235.256h97.362V235.256h64.805l8.566-81.086H271.521z"/>
    </symbol>
    <symbol id="facebook-square" viewBox="0 0 60.734 60.733">
        <path d="M57.378,0.001H3.352C1.502,0.001,0,1.5,0,3.353v54.026c0,1.853,1.502,3.354,3.352,3.354h29.086V37.214h-7.914v-9.167h7.914 v-6.76c0-7.843,4.789-12.116,11.787-12.116c3.355,0,6.232,0.251,7.071,0.36v8.198l-4.854,0.002c-3.805,0-4.539,1.809-4.539,4.462 v5.851h9.078l-1.187,9.166h-7.892v23.52h15.475c1.852,0,3.355-1.503,3.355-3.351V3.351C60.731,1.5,59.23,0.001,57.378,0.001z"/>
    </symbol>
    <symbol id="instagram" viewBox="0 0 438.536 438.536">
        <path d="M421.981,16.562C410.941,5.519,397.711,0,382.298,0H56.248C40.83,0,27.604,5.521,16.561,16.562 C5.52,27.6,0.001,40.828,0.001,56.243V382.29c0,15.413,5.518,28.644,16.56,39.683c11.043,11.04,24.272,16.563,39.687,16.563 h326.046c15.41,0,28.644-5.523,39.684-16.563c11.043-11.039,16.557-24.27,16.557-39.683V56.243 C438.534,40.825,433.021,27.604,421.981,16.562z M157.462,158.025c17.224-16.652,37.924-24.982,62.097-24.982 c24.36,0,45.153,8.33,62.381,24.982c17.228,16.655,25.837,36.785,25.837,60.386c0,23.598-8.609,43.729-25.837,60.379 c-17.228,16.659-38.014,24.988-62.381,24.988c-24.172,0-44.87-8.336-62.097-24.988c-17.228-16.652-25.841-36.781-25.841-60.379 C131.621,194.81,140.234,174.681,157.462,158.025z M388.865,370.589c0,4.945-1.718,9.083-5.141,12.416 c-3.433,3.33-7.519,4.996-12.282,4.996h-305.2c-4.948,0-9.091-1.666-12.419-4.996c-3.333-3.326-4.998-7.471-4.998-12.416V185.575 H89.08c-3.805,11.993-5.708,24.462-5.708,37.402c0,36.553,13.322,67.715,39.969,93.511c26.65,25.786,58.721,38.685,96.217,38.685 c24.744,0,47.583-5.903,68.527-17.703c20.937-11.807,37.486-27.839,49.676-48.112c12.183-20.272,18.274-42.4,18.274-66.38 c0-12.94-1.91-25.406-5.715-37.402h38.547v185.014H388.865z M388.865,115.626c0,5.52-1.903,10.184-5.716,13.99 c-3.805,3.809-8.466,5.711-13.989,5.711h-49.676c-5.517,0-10.185-1.903-13.99-5.711c-3.806-3.806-5.708-8.47-5.708-13.99V68.522 c0-5.33,1.902-9.945,5.708-13.848c3.806-3.901,8.474-5.854,13.99-5.854h49.676c5.523,0,10.185,1.952,13.989,5.854 c3.812,3.903,5.716,8.518,5.716,13.848V115.626z"/>
    </symbol>
    <symbol id="twitter" viewBox="0 0 449.956 449.956">
        <path d="M449.956,85.657c-17.702,7.614-35.408,12.369-53.102,14.279c19.985-11.991,33.503-28.931,40.546-50.819 c-18.281,10.847-37.787,18.268-58.532,22.267c-18.274-19.414-40.73-29.125-67.383-29.125c-25.502,0-47.246,8.992-65.24,26.98 c-17.984,17.987-26.977,39.731-26.977,65.235c0,6.851,0.76,13.896,2.284,21.128c-37.688-1.903-73.042-11.372-106.068-28.407 C82.46,110.158,54.433,87.46,31.403,59.101c-8.375,14.272-12.564,29.787-12.564,46.536c0,15.798,3.711,30.456,11.138,43.97 c7.422,13.512,17.417,24.455,29.98,32.831c-14.849-0.572-28.743-4.475-41.684-11.708v1.142c0,22.271,6.995,41.824,20.983,58.674 c13.99,16.848,31.645,27.453,52.961,31.833c-7.995,2.091-16.086,3.138-24.269,3.138c-5.33,0-11.136-0.475-17.416-1.42 c5.9,18.459,16.75,33.633,32.546,45.535c15.799,11.896,33.691,18.028,53.677,18.418c-33.498,26.262-71.66,39.393-114.486,39.393 c-8.186,0-15.607-0.373-22.27-1.139c42.827,27.596,90.03,41.394,141.612,41.394c32.738,0,63.478-5.181,92.21-15.557 c28.746-10.369,53.297-24.267,73.665-41.686c20.362-17.415,37.925-37.448,52.674-60.097c14.75-22.651,25.738-46.298,32.977-70.946 c7.23-24.653,10.848-49.344,10.848-74.092c0-5.33-0.096-9.325-0.287-11.991C421.785,120.202,437.202,104.306,449.956,85.657z"/>
    </symbol>
    <symbol id="youtube" viewBox="0 0 511.626 511.627">
        <path d="M511.339,212.987c-0.186-10.277-1-23.271-2.423-38.97c-1.431-15.708-3.478-29.746-6.14-42.115 c-3.046-13.893-9.661-25.6-19.842-35.117c-10.181-9.519-22.031-15.037-35.549-16.562c-42.258-4.755-106.115-7.135-191.573-7.135 c-85.459,0-149.317,2.38-191.572,7.135c-13.516,1.524-25.319,7.043-35.404,16.562c-10.089,9.514-16.656,21.221-19.702,35.117 c-2.852,12.373-4.996,26.41-6.423,42.115c-1.425,15.699-2.235,28.688-2.424,38.97C0.094,223.265,0,237.539,0,255.813 c0,18.272,0.094,32.55,0.288,42.826c0.189,10.284,0.999,23.271,2.424,38.969c1.427,15.707,3.474,29.745,6.139,42.116 c3.046,13.897,9.659,25.602,19.842,35.115c10.185,9.517,22.036,15.036,35.548,16.56c42.255,4.76,106.109,7.139,191.572,7.139 c85.466,0,149.315-2.379,191.573-7.139c13.518-1.523,25.316-7.043,35.405-16.56c10.089-9.514,16.652-21.225,19.698-35.115 c2.854-12.371,4.996-26.409,6.427-42.116c1.423-15.697,2.231-28.691,2.423-38.969c0.191-10.276,0.287-24.554,0.287-42.826 C511.626,237.539,511.531,223.265,511.339,212.987z M356.883,271.231L210.706,362.59c-2.666,1.903-5.905,2.854-9.71,2.854 c-2.853,0-5.803-0.764-8.848-2.286c-6.28-3.422-9.419-8.754-9.419-15.985V164.454c0-7.229,3.14-12.561,9.419-15.986 c6.473-3.431,12.657-3.239,18.558,0.571l146.178,91.36c5.708,3.23,8.562,8.372,8.562,15.415 C365.446,262.854,362.591,267.998,356.883,271.231z"/>
    </symbol>
    <symbol id="vk" viewBox="0 0 548.358 548.358">
        <path d="M545.451,400.298c-0.664-1.431-1.283-2.618-1.858-3.569c-9.514-17.135-27.695-38.167-54.532-63.102l-0.567-0.571 l-0.284-0.28l-0.287-0.287h-0.288c-12.18-11.611-19.893-19.418-23.123-23.415c-5.91-7.614-7.234-15.321-4.004-23.13 c2.282-5.9,10.854-18.36,25.696-37.397c7.807-10.089,13.99-18.175,18.556-24.267c32.931-43.78,47.208-71.756,42.828-83.939 l-1.701-2.847c-1.143-1.714-4.093-3.282-8.846-4.712c-4.764-1.427-10.853-1.663-18.278-0.712l-82.224,0.568 c-1.332-0.472-3.234-0.428-5.712,0.144c-2.475,0.572-3.713,0.859-3.713,0.859l-1.431,0.715l-1.136,0.859 c-0.952,0.568-1.999,1.567-3.142,2.995c-1.137,1.423-2.088,3.093-2.848,4.996c-8.952,23.031-19.13,44.444-30.553,64.238 c-7.043,11.803-13.511,22.032-19.418,30.693c-5.899,8.658-10.848,15.037-14.842,19.126c-4,4.093-7.61,7.372-10.852,9.849 c-3.237,2.478-5.708,3.525-7.419,3.142c-1.715-0.383-3.33-0.763-4.859-1.143c-2.663-1.714-4.805-4.045-6.42-6.995 c-1.622-2.95-2.714-6.663-3.285-11.136c-0.568-4.476-0.904-8.326-1-11.563c-0.089-3.233-0.048-7.806,0.145-13.706 c0.198-5.903,0.287-9.897,0.287-11.991c0-7.234,0.141-15.085,0.424-23.555c0.288-8.47,0.521-15.181,0.716-20.125 c0.194-4.949,0.284-10.185,0.284-15.705s-0.336-9.849-1-12.991c-0.656-3.138-1.663-6.184-2.99-9.137 c-1.335-2.95-3.289-5.232-5.853-6.852c-2.569-1.618-5.763-2.902-9.564-3.856c-10.089-2.283-22.936-3.518-38.547-3.71 c-35.401-0.38-58.148,1.906-68.236,6.855c-3.997,2.091-7.614,4.948-10.848,8.562c-3.427,4.189-3.905,6.475-1.431,6.851 c11.422,1.711,19.508,5.804,24.267,12.275l1.715,3.429c1.334,2.474,2.666,6.854,3.999,13.134c1.331,6.28,2.19,13.227,2.568,20.837 c0.95,13.897,0.95,25.793,0,35.689c-0.953,9.9-1.853,17.607-2.712,23.127c-0.859,5.52-2.143,9.993-3.855,13.418 c-1.715,3.426-2.856,5.52-3.428,6.28c-0.571,0.76-1.047,1.239-1.425,1.427c-2.474,0.948-5.047,1.431-7.71,1.431 c-2.667,0-5.901-1.334-9.707-4c-3.805-2.666-7.754-6.328-11.847-10.992c-4.093-4.665-8.709-11.184-13.85-19.558 c-5.137-8.374-10.467-18.271-15.987-29.691l-4.567-8.282c-2.855-5.328-6.755-13.086-11.704-23.267 c-4.952-10.185-9.329-20.037-13.134-29.554c-1.521-3.997-3.806-7.04-6.851-9.134l-1.429-0.859c-0.95-0.76-2.475-1.567-4.567-2.427 c-2.095-0.859-4.281-1.475-6.567-1.854l-78.229,0.568c-7.994,0-13.418,1.811-16.274,5.428l-1.143,1.711 C0.288,140.146,0,141.668,0,143.763c0,2.094,0.571,4.664,1.714,7.707c11.42,26.84,23.839,52.725,37.257,77.659 c13.418,24.934,25.078,45.019,34.973,60.237c9.897,15.229,19.985,29.602,30.264,43.112c10.279,13.515,17.083,22.176,20.412,25.981 c3.333,3.812,5.951,6.662,7.854,8.565l7.139,6.851c4.568,4.569,11.276,10.041,20.127,16.416 c8.853,6.379,18.654,12.659,29.408,18.85c10.756,6.181,23.269,11.225,37.546,15.126c14.275,3.905,28.169,5.472,41.684,4.716h32.834 c6.659-0.575,11.704-2.669,15.133-6.283l1.136-1.431c0.764-1.136,1.479-2.901,2.139-5.276c0.668-2.379,1-5,1-7.851 c-0.195-8.183,0.428-15.558,1.852-22.124c1.423-6.564,3.045-11.513,4.859-14.846c1.813-3.33,3.859-6.14,6.136-8.418 c2.282-2.283,3.908-3.666,4.862-4.142c0.948-0.479,1.705-0.804,2.276-0.999c4.568-1.522,9.944-0.048,16.136,4.429 c6.187,4.473,11.99,9.996,17.418,16.56c5.425,6.57,11.943,13.941,19.555,22.124c7.617,8.186,14.277,14.271,19.985,18.274 l5.708,3.426c3.812,2.286,8.761,4.38,14.853,6.283c6.081,1.902,11.409,2.378,15.984,1.427l73.087-1.14 c7.229,0,12.854-1.197,16.844-3.572c3.998-2.379,6.373-5,7.139-7.851c0.764-2.854,0.805-6.092,0.145-9.712 C546.782,404.25,546.115,401.725,545.451,400.298z"/>
    </symbol>
    <symbol id="calculator" viewBox="0 0 330 330">
        <path d="M270.102,0H59.898c-8.284,0-15,6.716-15,15v90v210c0,8.284,6.716,15,15,15h210.203c8.285,0,15-6.716,15-15   V105V15C285.102,6.716,278.387,0,270.102,0z M114.898,300h-40v-40h40V300z M114.898,230h-40v-40.001h40V230z M114.898,159.999h-40   V120h40V159.999z M184.898,300h-40v-40h40V300z M184.898,230h-40v-40.001h40V230z M184.898,159.999h-40V120h40V159.999z    M255.102,300h-40.203v-40h40.203V300z M255.102,230h-40.203v-40.001h40.203V230z M255.102,159.999h-40.203V120h40.203V159.999z    M255.102,90H74.898V30h180.203V90z"/>
    </symbol>
    <symbol id="telephone" viewBox="0 0 477.156 477.156">
        <path d="M475.009,380.316l-2.375-7.156c-5.625-16.719-24.062-34.156-41-38.75l-62.688-17.125c-17-4.625-41.25,1.594-53.688,14.031 l-22.688,22.688c-82.453-22.28-147.109-86.938-169.359-169.375L145.9,161.94c12.438-12.438,18.656-36.656,14.031-53.656 l-17.094-62.719c-4.625-16.969-22.094-35.406-38.781-40.969L96.9,2.19c-16.719-5.563-40.563,0.063-53,12.5L9.962,48.659 C3.899,54.69,0.024,71.94,0.024,72.003c-1.187,107.75,41.063,211.562,117.281,287.781 c76.031,76.031,179.454,118.219,286.891,117.313c0.562,0,18.312-3.813,24.375-9.845l33.938-33.938 C474.946,420.878,480.571,397.035,475.009,380.316z"/>
    </symbol>
    <symbol id="small-chevron-right" viewBox="0 0 9 12">
        <path d="M2.9 11c.22 0 .45-.1.63-.29l3.21-3.53c.35-.38.35-1 0-1.38l-3.21-3.53a.84.84 0 0 0-1.27 0c-.35.37-.35.99 0 1.37l2.59 2.85-2.6 2.85c-.34.38-.34 1 .01 1.38.18.19.4.28.63.28z"/>
    </symbol>
    <symbol id="chevron-right" viewBox="0 0 19 30">
        <path d="M5.52 27.04l11.46-10.5c.92-.85.92-2.22 0-3.07l-11.46-10.5c-.93-.85-2-1.44-3.37-.01-.88.9.07 2.22 1 3.07l9.79 8.98-9.79 8.97c-.93.85-1.81 2.1-1 3.07 1.07 1.27 2.43.85 3.37 0z"/>
    </symbol>
    <symbol id="chevron-left" viewBox="0 0 20 31">
        <path d="M14.03 27.72l-11.61-10.65a2.07 2.07 0 0 1 0-3.11l11.61-10.65c.95-.87 2.04-1.46 3.43-.01.88.92-.08 2.25-1.02 3.11l-9.92 9.1 9.92 9.1c.94.87 1.84 2.14 1.02 3.12-1.09 1.29-2.47.86-3.43-.01z"/>
    </symbol>
    <symbol id="search" viewBox="0 0 21 24">
        <path d="M6.24 4.32a7.65 7.65 0 0 1 10.52 1.84 7.32 7.32 0 0 1-.78 9.42l2.72 3.86a1.6 1.6 0 0 1-.4 2.26c-.75.52-1.78.34-2.3-.4l-2.8-3.94a7.64 7.64 0 0 1-8.83-2.7 7.34 7.34 0 0 1 1.87-10.34zm.07 8.75a4.91 4.91 0 0 0 6.85 1.21c2.22-1.55 3.6-4.5 1.9-6.86-1.7-2.36-5.3-2.77-7.53-1.21a4.93 4.93 0 0 0-1.22 6.86z"/>
    </symbol>
    <symbol id="label-free" viewBox="0 0 96 18">
        <path d="M7.65 4.73c-.17 0-.26.09-.26.25 0 .08.12.24.34.5a6.76 6.76 0 0 1 1.78 4.46c0 1.58-.42 3.02-1.27 4.32a5.62 5.62 0 0 1-1.51 1.57 3.2 3.2 0 0 1-1.85.62c-1.15 0-2.01-.27-2.56-.83-.56-.55-.83-1.4-.83-2.55 0-1.6.46-3 1.4-4.2a4.95 4.95 0 0 1 4.4-1.94 10.9 10.9 0 0 0-.83-.89c-.29-.27-.55-.54-.8-.8-.54-.6-.81-1.16-.81-1.68 0-.53.17-.9.52-1.15.35-.23.9-.35 1.64-.35h3.93c.46 0 .76-.13.9-.37a2 2 0 0 0 .23-.6h.88c-.32 1.52-.7 2.51-1.14 2.98-.26.26-.56.44-.92.53-.36.09-.8.13-1.32.13zm-3 9.62c.16.2.41.3.75.3.33 0 .62-.1.86-.31.23-.21.44-.48.63-.82.32-.6.56-1.33.72-2.16.16-.84.24-1.5.24-1.99 0-.48-.06-.8-.2-.98-.12-.17-.33-.26-.61-.26-.29 0-.56.1-.81.3-.26.2-.49.46-.7.78a7.07 7.07 0 0 0-.83 2.06c-.2.8-.3 1.47-.3 2 0 .52.09.88.25 1.08zm9.06 2.14c-.95 0-1.7-.24-2.27-.74-.57-.49-.85-1.3-.85-2.43 0-1.53.39-3 1.16-4.43a5.15 5.15 0 0 1 2.42-2.32 3.82 3.82 0 0 1 1.64-.37c.93 0 1.56.17 1.89.52.33.35.5.81.5 1.4 0 1.13-.46 2.1-1.38 2.9-.92.8-2 1.23-3.22 1.31-.04.38-.05.65-.05.8 0 .69.12 1.14.36 1.36.24.21.58.32 1.02.32.76 0 1.41-.17 1.93-.51a8.51 8.51 0 0 0 1.67-1.51h.25a9.25 9.25 0 0 1 1.15-3.9 5.18 5.18 0 0 1 2.41-2.32 3.8 3.8 0 0 1 1.63-.37c1.6 0 2.4.6 2.4 1.82 0 .5-.1.88-.31 1.11a.92.92 0 0 1-.7.36c-.26 0-.51-.08-.75-.23.16-.43.24-.83.24-1.19 0-.54-.2-.82-.57-.82-.38 0-.78.35-1.2 1.04a9.72 9.72 0 0 0-1.36 5.08c0 .96.46 1.44 1.38 1.44.77 0 1.42-.17 1.94-.51a8.51 8.51 0 0 0 1.67-1.51h.5l1.35-6.42h2.88l-.21 1.04a3 3 0 0 1 2.33-1.11c.64 0 1.17.17 1.6.52.42.36.63.88.63 1.57 0 .69-.11 1.47-.33 2.34l-.48 1.93c-.1.43-.16.77-.16 1.04 0 .57.25.86.73.86.45 0 .8-.14 1.04-.43s.48-.73.71-1.34h.4l.06-.04c.15-.08.36-.12.6-.12.26 0 .49.1.68.3.19.18.29.44.29.76 0 .33-.09.56-.25.72a.66.66 0 0 1-.55.19c0 .13.06.27.16.42.1.14.3.21.62.21s.58-.1.78-.32c.36-.37.64-1.07.86-2.1l.29-1.47c.57-2.8 1.44-4.38 2.6-4.77.38-.13.79-.2 1.24-.2h2.95l-1.42 6.5c-.08.4-.13.67-.13.85 0 .56.27.84.8.84.4 0 .73-.16.97-.47.24-.3.48-.74.71-1.3h.26a9.26 9.26 0 0 1 .54-2.55 7.39 7.39 0 0 1 1.78-2.84 3.89 3.89 0 0 1 2.8-1.12c.58 0 1 .1 1.25.28.25.2.38.44.38.73v.15l.21-1.07h2.88l-1.43 6.8c-.06.23-.09.44-.09.65 0 .57.27.86.82.86.71 0 1.25-.63 1.62-1.89h.5l1.36-6.42h2.88l-.21 1.04a3.13 3.13 0 0 1 2.44-1.13c1.18 0 1.86.57 2.05 1.72.73-1.14 1.66-1.7 2.78-1.7.63 0 1.16.17 1.58.52.43.36.64.87.64 1.55 0 .67-.11 1.46-.33 2.34l-.47 1.95c-.1.43-.16.77-.16 1.04 0 .57.25.86.73.86.45 0 .8-.14 1.04-.43s.48-.73.71-1.34h.5l1.36-6.42h2.88l-.86 4h2.24l.9-4h2.68l-1.05 4.97-.36 1.54c-.09.38-.13.66-.13.84 0 .56.26.84.8.84.4 0 .72-.16.97-.47.24-.3.47-.74.7-1.3h.24c.05-.73.17-1.4.37-2 1.02-3.06 2.72-4.6 5.1-4.6 1.7 0 2.56 1.05 2.56 3.14 0 2.1-.45 3.8-1.36 5.13a4.89 4.89 0 0 1-1.53 1.47c-.6.35-1.18.52-1.77.52-1.12 0-1.97-.25-2.54-.75a2.53 2.53 0 0 1-.8-1.54c-.79 1.55-1.84 2.33-3.14 2.33-.77 0-1.35-.2-1.75-.6-.4-.41-.6-.92-.6-1.52 0-.45.15-1.39.45-2.8h-2.21l-1.03 4.8h-2.88l.42-1.98a4.74 4.74 0 0 1-1.2 1.5c-.51.4-1.06.6-1.63.6-1.71 0-2.56-.75-2.56-2.25 0-.55.15-1.42.45-2.62.3-1.2.45-2.03.45-2.48 0-.69-.25-1.03-.73-1.03s-.9.38-1.29 1.15c-.1.21-.2.44-.27.7l-1.36 6.41h-2.88l1.47-6.9c.04-.16.06-.32.06-.5 0-.58-.2-.88-.6-.88-.39 0-.72.19-1 .55-.28.37-.49.81-.63 1.32l-1.36 6.41h-2.88l.44-2.07c-.82 1.46-1.94 2.2-3.35 2.2-1.18 0-1.83-.62-1.96-1.84-.88 1.22-1.9 1.83-3.06 1.83-1.16 0-1.95-.57-2.36-1.7-.08-.21-.14-.44-.17-.67-.8 1.58-1.86 2.37-3.18 2.37-.76 0-1.34-.2-1.75-.6-.4-.42-.6-.9-.6-1.43 0-.55.14-1.48.43-2.8l.88-3.97c-.67 0-1.18.28-1.53.84-.35.56-.64 1.4-.88 2.52a77.64 77.64 0 0 1-.6 2.6 6.66 6.66 0 0 1-.57 1.55 2.34 2.34 0 0 1-2.22 1.3c-.73 0-1.28-.23-1.65-.67a2.3 2.3 0 0 1-.46-.91c-.6.9-1.32 1.41-2.13 1.53-.21.03-.47.04-.77.04-.31 0-.61-.06-.91-.2-.84-.35-1.25-1.03-1.25-2.05 0-.55.15-1.42.45-2.62.3-1.2.45-2.03.45-2.48 0-.69-.24-1.03-.73-1.03-.48 0-.9.38-1.28 1.15-.12.21-.2.44-.28.7l-1.36 6.41h-2.88l.67-3.14c-1.44 2.17-3.18 3.26-5.22 3.26-.95 0-1.7-.24-2.27-.74-.54-.46-.83-1.22-.85-2.28-1.41 2.02-3.1 3.02-5.06 3.02zm2.94-8.51c0-.49-.16-.73-.5-.73-.48.02-.95.45-1.41 1.3-.46.85-.78 1.79-.99 2.82a2.9 2.9 0 0 0 2.03-1.07c.58-.66.87-1.44.87-2.32zm39.13.3a1 1 0 0 0-.17-.47c-.11-.2-.35-.3-.73-.3-.37 0-.73.2-1.08.6a7.42 7.42 0 0 0-1.6 4.12c-.02.28-.04.57-.04.87 0 .6.12 1 .37 1.24.14.15.32.22.54.22.4 0 .76-.16 1.08-.48.33-.31.55-.74.68-1.29zm34.6 6.38c.35 0 .68-.2.99-.58.6-.8 1.01-1.92 1.24-3.37.11-.69.17-1.3.17-1.8 0-.52-.05-.9-.15-1.14-.1-.24-.32-.36-.65-.36-.63 0-1.23.68-1.79 2.03a9.58 9.58 0 0 0-.84 3.6c0 .64.06 1.05.18 1.22a.8.8 0 0 0 .37.33c.13.04.29.07.48.07z"/>
    </symbol>
    <symbol id="envelope-thin" viewBox="0 0 512 512">
        <path d="M448,64H64C28.656,64,0,92.656,0,128v256c0,35.344,28.656,64,64,64h384c35.344,0,64-28.656,64-64V128   C512,92.656,483.344,64,448,64z M342.656,234.781l135.469-116.094c0.938,3,1.875,6,1.875,9.313v256   c0,2.219-0.844,4.188-1.281,6.281L342.656,234.781z M448,96c2.125,0,4,0.813,6,1.219L256,266.938L58,97.219   C60,96.813,61.875,96,64,96H448z M33.266,390.25C32.828,388.156,32,386.219,32,384V128c0-3.313,0.953-6.313,1.891-9.313   L169.313,234.75L33.266,390.25z M64,416c-3.234,0-6.172-0.938-9.125-1.844l138.75-158.563l51.969,44.531   C248.578,302.719,252.297,304,256,304s7.422-1.281,10.406-3.875l51.969-44.531l138.75,158.563C454.188,415.062,451.25,416,448,416   H64z"/>
    </symbol>
    <symbol id="remove" viewBox="0 0 15 15">
        <path d="M1472.31785,1082.19606l3.18195,3.18197l3.18195,-3.18197c0.58584,-0.5857 1.53554,-0.5857 2.12138,0c0.58572,0.58617 0.58572,1.5354 0,2.12157l-3.18195,3.18179l3.18195,3.18197c0.58572,0.5857 0.58572,1.5354 0,2.1211c-0.58584,0.5857 -1.53554,0.5857 -2.12138,0l-3.18195,-3.18179l-3.18195,3.18179c-0.58584,0.5857 -1.53554,0.5857 -2.12138,0c-0.58572,-0.5857 -0.58572,-1.5354 0,-2.1211l3.18195,-3.18197l-3.18195,-3.18179c-0.58572,-0.58617 -0.58572,-1.5354 0,-2.12157c0.58584,-0.5857 1.53554,-0.5857 2.12138,0z" transform="matrix(1,0,0,1,-1468,-1080)"/>
    </symbol>
    <symbol id="check" viewBox="0 0 23 19">
        <path d="M899 1089s-.87-1.17 0-2c1.11-1.06 2 0 2 0l4 5 10-12s1-.94 2 0c1.1 1.04 0 2 0 2l-12 14z" transform="translate(-897 -1078)"/>
    </symbol>
    <symbol id="check-bold" viewBox="0 0 1700 1700">
        <path d="M511 743l184 199 22 24c6,7 11,5 18,-1l458 -476c51,-62 209,52 142,138 -175,183 -360,395 -541,567 -44,45 -80,49 -139,-4l-292 -315c-59,-67 77,-187 148,-132z"/>
    </symbol>
    <symbol id="ruble" viewBox="0 0 510.127 510.127">
        <path d="M34.786,428.963h81.158v69.572c0,3.385,1.083,6.156,3.262,8.322c2.173,2.18,4.951,3.27,8.335,3.27h60.502    c3.14,0,5.857-1.09,8.152-3.27c2.295-2.166,3.439-4.938,3.439-8.322v-69.572h182.964c3.377,0,6.156-1.076,8.334-3.256    c2.18-2.178,3.262-4.951,3.262-8.336v-46.377c0-3.365-1.082-6.156-3.262-8.322c-2.172-2.18-4.957-3.27-8.334-3.27H199.628v-42.754    h123.184c48.305,0,87.73-14.719,118.293-44.199c30.551-29.449,45.834-67.49,45.834-114.125c0-46.604-15.283-84.646-45.834-114.125    C410.548,14.749,371.116,0,322.812,0H127.535c-3.385,0-6.157,1.089-8.335,3.256c-2.173,2.179-3.262,4.969-3.262,8.335v227.896    H34.786c-3.384,0-6.157,1.145-8.335,3.439c-2.172,2.295-3.262,5.012-3.262,8.151v53.978c0,3.385,1.083,6.158,3.262,8.336    c2.179,2.18,4.945,3.256,8.335,3.256h81.158v42.754H34.786c-3.384,0-6.157,1.09-8.335,3.27c-2.172,2.166-3.262,4.951-3.262,8.322    v46.377c0,3.385,1.083,6.158,3.262,8.336C28.629,427.887,31.401,428.963,34.786,428.963z M199.628,77.179h115.938    c25.6,0,46.248,7.485,61.953,22.46c15.697,14.976,23.549,34.547,23.549,58.691c0,24.156-7.852,43.733-23.549,58.691    c-15.705,14.988-36.354,22.473-61.953,22.473H199.628V77.179z"/>
    </symbol>
    <symbol id="advantage-1" viewBox="0 0 3342 4134">
        <path d="M577 1266l1878 0c45,0 80,13 82,67l0 1940c0,20 -16,36 -36,36l-1969 0c-20,0 -36,-16 -36,-36l0 -1942c-4,-43 23,-64 81,-65l0 0zm1889 72l-1899 0 0 1899 1899 0 0 -1899z"/>
        <path d="M1353 47c80,-66 219,-61 297,5l1318 1033c195,163 -97,432 -293,268l-1144 -888c-26,-22 -47,-18 -71,1l-1113 889c-221,181 -468,-103 -281,-256l1287 -1052zm249 47l1316 1041c128,108 -65,285 -194,176l-1170 -919c-40,-35 -74,-30 -105,-3l-1157 929c-130,104 -298,-70 -182,-166l1290 -1056c53,-43 148,-48 202,-2l0 0z"/>
        <path d="M2054 4032c421,-128 539,-321 773,-685 -118,467 -347,719 -681,786 -57,11 -107,-74 -92,-101zm176 -295c-487,-550 169,-956 498,-985 173,-15 303,-314 303,-314 493,514 419,1958 -356,1558 -42,-22 -44,-23 -14,-59 172,-209 264,-693 261,-957 -107,377 -322,593 -585,766 -67,43 -54,50 -107,-9z"/>
    </symbol>
    <symbol id="quote" viewBox="0 0 34 35">
        <path d="M1239.35834,5508.99221h-12.08603l-4.26574,32.00431h9.32128zM1254.99924,5508.99221h-12.08614l-4.26563,32.00431h9.32128z" transform="matrix(1,0,0,1,-1222,-5507)"/>
    </symbol>
    <symbol id="arrow-right" viewBox="0 0 15 14">
        <path d="M1412.12304,5679.69297c-0.30804,-0.37528 0.02797,-0.86328 0.38029,-1.19441l2.66041,-2.49872l-7.16386,0c-0.55231,0 -0.99999,-0.44761 -0.99999,-0.99996c0,-0.55235 0.44767,-0.99996 0.99999,-0.99996l7.13786,0l-2.6344,-2.4743c-0.35232,-0.33113 -0.71177,-0.84121 -0.38029,-1.19441c0.5197,-0.55376 0.92796,-0.3269 1.28028,0.00423l4.3457,4.08156c0.35051,0.32925 0.35051,0.86093 0,1.18971l-4.3457,4.08203c-0.35651,0.33489 -0.87485,0.4974 -1.28028,0.00423z" transform="matrix(1,0,0,1,-1405,-5668)"/>
    </symbol>
    <symbol id="arrow-scheme" viewBox="0 0 40 19">
        <path d="M847.37856,6063.69066c-0.38221,-0.38326 -0.38221,-1.00747 0,-1.39121c0.38233,-0.38561 1.00203,-0.38373 1.38265,0c3.48293,3.49571 6.7133,5.02832 8.97363,5.70009h0.76498c0.39819,0 0.76013,0.15514 1.02869,0.40827c0.00078,0.00012 0.00155,0.00024 0.00233,0.00036c0.4539,0.06951 1.96272,0.41896 2.46905,0.5918c0.74937,0.25504 0.75084,1.20944 -1.37167,1.49031c-0.24649,0.00978 -0.62393,0.03694 -1.11198,0.11278c-0.26726,0.24636 -0.62426,0.39683 -1.01642,0.39683h-0.73224c-2.2619,0.66677 -5.50648,2.19707 -9.00637,5.70996c-0.3821,0.3842 -1.00044,0.3842 -1.38265,0c-0.38221,-0.38467 -0.38221,-1.007 0,-1.39168c1.92278,-1.93605 3.79701,-3.32408 5.51285,-4.31828h-25.39153c-0.82842,0 -1.49998,-0.67165 -1.49998,-1.50017c0,-0.82852 0.67157,-1.50017 1.49998,-1.50017h25.37641c-1.71173,-0.99375 -3.58059,-2.37892 -5.49773,-4.30889z" transform="matrix(1,0,0,1,-824,-6060)"/>
    </symbol>
    <symbol id="arrow-scheme-long" viewBox="0 0 85 19">
        <path d="M1566.37859,6063.69066c-0.38221,-0.38326 -0.38221,-1.00747 0,-1.39121c0.38233,-0.38561 1.00203,-0.38373 1.38265,0c3.48293,3.49571 6.7133,5.02832 8.97363,5.70009h0.76498c0.39819,0 0.76013,0.15514 1.02869,0.40827c0.00078,0.00012 0.00155,0.00024 0.00233,0.00036c0.4539,0.06951 1.96272,0.41896 2.46905,0.5918c0.74937,0.25504 0.75084,1.20944 -1.37167,1.49031c-0.24649,0.00978 -0.62393,0.03694 -1.11198,0.11278c-0.26726,0.24636 -0.62426,0.39683 -1.01642,0.39683h-0.73224c-2.2619,0.66677 -5.50648,2.19707 -9.00637,5.70996c-0.3821,0.3842 -1.00044,0.3842 -1.38265,0c-0.38221,-0.38467 -0.38221,-1.007 0,-1.39168c1.92278,-1.93605 3.79701,-3.32408 5.51285,-4.31828h-25.39153c-0.82842,0 -1.49998,-0.67165 -1.49998,-1.50017c0,-0.82852 0.67157,-1.50017 1.49998,-1.50017h25.37641c-1.71173,-0.99375 -3.58059,-2.37892 -5.49773,-4.30889zM1540.49987,6067.99955c0.82842,0 1.49998,0.67165 1.49998,1.50017c0,0.82852 -0.67157,1.50017 -1.49998,1.50017c-0.82842,0 -1.49998,-0.67165 -1.49998,-1.50017c0,-0.82852 0.67157,-1.50017 1.49998,-1.50017zM1534.49995,6067.99955c0.82842,0 1.49998,0.67165 1.49998,1.50017c0,0.82852 -0.67157,1.50017 -1.49998,1.50017c-0.82853,0 -1.50009,-0.67165 -1.50009,-1.50017c0,-0.82852 0.67157,-1.50017 1.50009,-1.50017zM1525.49995,6067.99955c0.82842,0 1.49998,0.67165 1.49998,1.50017c0,0.82852 -0.67157,1.50017 -1.49998,1.50017c-0.82853,0 -1.50009,-0.67165 -1.50009,-1.50017c0,-0.82852 0.67157,-1.50017 1.50009,-1.50017zM1515.49985,6067.99955c0.82853,0 1.50009,0.67165 1.50009,1.50017c0,0.82852 -0.67157,1.50017 -1.50009,1.50017c-0.82842,0 -1.49998,-0.67165 -1.49998,-1.50017c0,-0.82852 0.67157,-1.50017 1.49998,-1.50017zM1501.49992,6067.99955c0.82842,0 1.49998,0.67165 1.49998,1.50017c0,0.82852 -0.67157,1.50017 -1.49998,1.50017c-0.82842,0 -1.49998,-0.67165 -1.49998,-1.50017c0,-0.82852 0.67157,-1.50017 1.49998,-1.50017z" transform="matrix(1,0,0,1,-1498,-6060)"/>
    </symbol>
    <symbol id="pointer" viewBox="0 0 80 80">
        <path d="M40,0C26.191,0,15,11.194,15,25c0,23.87,25,55,25,55s25-31.13,25-55C65,11.194,53.807,0,40,0z M40,38.8c-7.457,0-13.5-6.044-13.5-13.5S32.543,11.8,40,11.8c7.455,0,13.5,6.044,13.5,13.5S47.455,38.8,40,38.8z"/>
    </symbol>
    <symbol id="question" viewBox="0 0 365.442 365.442">
        <path d="M212.994,274.074h-68.522c-3.042,0-5.708,1.149-7.992,3.429c-2.286,2.286-3.427,4.948-3.427,7.994v68.525 c0,3.046,1.145,5.712,3.427,7.994c2.284,2.279,4.947,3.426,7.992,3.426h68.522c3.042,0,5.715-1.144,7.99-3.426 c2.29-2.282,3.433-4.948,3.433-7.994v-68.525c0-3.046-1.14-5.708-3.433-7.994C218.709,275.217,216.036,274.074,212.994,274.074z" />
		<path d="M302.935,68.951c-7.806-14.378-17.891-26.506-30.266-36.406c-12.367-9.896-26.271-17.799-41.685-23.697 C215.567,2.952,200.246,0,185.016,0C127.157,0,83,25.315,52.544,75.946c-1.521,2.473-2.046,5.137-1.571,7.993 c0.478,2.852,1.953,5.232,4.427,7.135l46.824,35.691c2.474,1.52,4.854,2.281,7.139,2.281c3.427,0,6.375-1.525,8.852-4.57 c13.702-17.128,23.887-28.072,30.548-32.833c8.186-5.518,18.461-8.276,30.833-8.276c11.61,0,21.838,3.046,30.692,9.132 c8.85,6.092,13.271,13.135,13.271,21.129c0,8.942-2.375,16.178-7.135,21.698c-4.757,5.518-12.754,10.845-23.986,15.986 c-14.842,6.661-28.457,16.988-40.823,30.978c-12.375,13.991-18.558,28.885-18.558,44.682v12.847c0,3.62,0.994,7.187,2.996,10.708 c2,3.524,4.425,5.283,7.282,5.283h68.521c3.046,0,5.708-1.472,7.994-4.432c2.279-2.942,3.426-6.036,3.426-9.267 c0-4.757,2.617-11.14,7.847-19.13c5.235-7.994,11.752-14.186,19.562-18.565c7.419-4.186,13.219-7.56,17.411-10.133 c4.196-2.566,9.664-6.715,16.423-12.421c6.756-5.712,11.991-11.375,15.698-16.988c3.713-5.614,7.046-12.896,9.996-21.844 c2.956-8.945,4.428-18.558,4.428-28.835C314.639,98.397,310.734,83.314,302.935,68.951z"/>
    </symbol>
    <symbol id="info" viewBox="0 0 9 21">
        <path d="M606.77614,1308.41984v-0.83096c0.24344,-0.09778 0.5679,-0.19899 0.97375,-0.30531c0.40549,-0.10504 0.83569,-0.19856 1.29025,-0.28054c0.45415,-0.08156 0.90454,-0.15116 1.35109,-0.20795c0.44618,-0.05765 0.83986,-0.0854 1.18066,-0.0854l0.43822,0.2925l-2.19099,10.48261h1.70412v0.85231c-0.21112,0.15073 -0.45872,0.29207 -0.74249,0.42615c-0.28413,0.13365 -0.58429,0.25023 -0.90074,0.35057c-0.31645,0.10035 -0.63712,0.17934 -0.96162,0.2387c-0.32478,0.0585 -0.6329,0.08754 -0.92505,0.08754c-0.61697,0 -1.04297,-0.11828 -1.27808,-0.35442c-0.23543,-0.23656 -0.35298,-0.49277 -0.35298,-0.77032c0,-0.32538 0.02435,-0.64265 0.07306,-0.95223c0.04866,-0.30958 0.11334,-0.65204 0.19473,-1.02653l1.65541,-7.57512zM608.79671,1302.92211c0,-0.55383 0.18636,-0.98596 0.55989,-1.29469c0.37317,-0.30958 0.84366,-0.46416 1.41197,-0.46416c0.61661,0 1.10765,0.15458 1.47281,0.46416c0.36516,0.30873 0.54776,0.74086 0.54776,1.29469c0,0.52138 -0.1826,0.93685 -0.54776,1.24644c-0.36516,0.30958 -0.8562,0.46458 -1.47281,0.46458c-0.56831,0 -1.0388,-0.155 -1.41197,-0.46458c-0.37354,-0.30958 -0.55989,-0.72506 -0.55989,-1.24644z" transform="matrix(1,0,0,1,-605,-1300)"/>
    </symbol>
    <symbol id="clip" viewBox="0 0 330.01 330.01">
        <path d="M308.078,55.614c-14.165-14.166-32.999-21.967-53.032-21.967c-20.033,0-38.867,7.801-53.033,21.967 L83.786,173.84c-17.545,17.545-17.545,46.093,0.001,63.64c17.546,17.545,46.095,17.544,63.64-0.002l77.85-77.85 c5.858-5.858,5.858-15.355,0-21.213c-5.857-5.858-15.355-5.858-21.213,0l-77.85,77.85c-5.848,5.85-15.365,5.849-21.214,0.001 c-5.849-5.849-5.849-15.366-0.001-21.214L223.226,76.828c8.5-8.499,19.8-13.18,31.82-13.18c12.02,0,23.32,4.681,31.819,13.18 c17.545,17.546,17.546,46.094,0.002,63.64L158.034,269.298c-29.244,29.242-76.825,29.241-106.066,0 C37.802,255.133,30,236.299,30,216.266s7.802-38.868,21.968-53.034l128.83-128.832c5.858-5.858,5.858-15.355,0-21.213 c-5.857-5.857-15.355-5.858-21.213,0L30.755,142.019C10.922,161.851,0,188.219,0,216.266s10.922,54.415,30.755,74.246 c20.472,20.472,47.354,30.707,74.245,30.704c26.885-0.002,53.779-10.237,74.247-30.704L308.08,161.68 C337.321,132.437,337.32,84.857,308.078,55.614z"/>
    </symbol>
    <symbol id="scrollup" viewBox="0 0 18 27">
        <path d="M1860.65736,1617.62476l-3.6576,-3.67796v15.05466c0,1.10423 -0.89535,1.99945 -1.99997,1.99945c-1.10452,0 -1.99997,-0.89522 -1.99997,-1.99945l0,-15.08613l-3.68897,3.70943l-1.93655,-1.97502l7.60987,-7.65257l7.60975,7.65257zM1854.98416,1611.91998l-0.08081,0.08126l0.16161,0z" transform="matrix(1,0,0,1,-1846,-1606)"/>
    </symbol>
    <symbol id="forward" viewBox="0 0 408 408">
        <polygon points="204,102 204,0 408,204 204,408 204,306 0,306 0,102"/>
    </symbol>
</svg>